<svg xmlns="http://www.w3.org/2000/svg" viewBox="0 0 130 64" fill="none" stroke-width="0.4" stroke-linecap="round">
  <line x1="0.00" y1="0.00" x2="10.00" y2="0.00" stroke="#000000"/>
  <line x1="10.00" y1="0.00" x2="20.00" y2="0.00" stroke="#000000"/>
  <line x1="20.00" y1="0.00" x2="30.00" y2="0.00" stroke="#000000"/>
  <line x1="30.00" y1="0.00" x2="40.00" y2="0.00" stroke="#000000"/>
  <line x1="40.00" y1="0.00" x2="50.00" y2="0.00" stroke="#000000"/>
  <line x1="50.00" y1="0.00" x2="60.00" y2="0.00" stroke="#000000"/>
  <line x1="60.00" y1="0.00" x2="70.00" y2="0.00" stroke="#000000"/>
  <line x1="70.00" y1="0.00" x2="80.00" y2="0.00" stroke="#000000"/>
  <line x1="80.00" y1="0.00" x2="90.00" y2="0.00" stroke="#000000"/>
  <line x1="90.00" y1="0.00" x2="100.00" y2="0.00" stroke="#000000"/>
  <line x1="100.00" y1="0.00" x2="110.00" y2="0.00" stroke="#000000"/>
  <line x1="110.00" y1="0.00" x2="120.00" y2="0.00" stroke="#000000"/>
  <line x1="5.00" y1="8.00" x2="15.00" y2="8.00" stroke="#ff0000" stroke-opacity="0.7"/>
  <line x1="15.00" y1="8.00" x2="25.00" y2="8.00" stroke="#ff0000" stroke-opacity="0.7"/>
  <line x1="25.00" y1="8.00" x2="35.00" y2="8.00" stroke="#ff0000" stroke-opacity="0.7"/>
  <line x1="35.00" y1="8.00" x2="45.00" y2="8.00" stroke="#ff0000" stroke-opacity="0.7"/>
  <line x1="45.00" y1="8.00" x2="55.00" y2="8.00" stroke="#ff0000" stroke-opacity="0.7"/>
  <line x1="55.00" y1="8.00" x2="65.00" y2="8.00" stroke="#ff0000" stroke-opacity="0.7"/>
  <line x1="65.00" y1="8.00" x2="75.00" y2="8.00" stroke="#ff0000" stroke-opacity="0.7"/>
  <line x1="75.00" y1="8.00" x2="85.00" y2="8.00" stroke="#ff0000" stroke-opacity="0.7"/>
  <line x1="85.00" y1="8.00" x2="95.00" y2="8.00" stroke="#ff0000" stroke-opacity="0.7"/>
  <line x1="95.00" y1="8.00" x2="105.00" y2="8.00" stroke="#ff0000" stroke-opacity="0.7"/>
  <line x1="105.00" y1="8.00" x2="115.00" y2="8.00" stroke="#ff0000" stroke-opacity="0.7"/>
  <line x1="115.00" y1="8.00" x2="125.00" y2="8.00" stroke="#ff0000" stroke-opacity="0.7"/>
  <line x1="0.00" y1="16.00" x2="10.00" y2="16.00" stroke="#ff0000" stroke-opacity="0.7"/>
  <line x1="10.00" y1="16.00" x2="20.00" y2="16.00" stroke="#ff0000" stroke-opacity="0.7"/>
  <line x1="20.00" y1="16.00" x2="30.00" y2="16.00" stroke="#ff0000" stroke-opacity="0.7"/>
  <line x1="30.00" y1="16.00" x2="40.00" y2="16.00" stroke="#ff0000" stroke-opacity="0.7"/>
  <line x1="40.00" y1="16.00" x2="50.00" y2="16.00" stroke="#ff0000" stroke-opacity="0.7"/>
  <line x1="50.00" y1="16.00" x2="60.00" y2="16.00" stroke="#ff0000" stroke-opacity="0.7"/>
  <line x1="60.00" y1="16.00" x2="70.00" y2="16.00" stroke="#ff0000" stroke-opacity="0.7"/>
  <line x1="70.00" y1="16.00" x2="80.00" y2="16.00" stroke="#ff0000" stroke-opacity="0.7"/>
  <line x1="80.00" y1="16.00" x2="90.00" y2="16.00" stroke="#ff0000" stroke-opacity="0.7"/>
  <line x1="90.00" y1="16.00" x2="100.00" y2="16.00" stroke="#ff0000" stroke-opacity="0.7"/>
  <line x1="100.00" y1="16.00" x2="110.00" y2="16.00" stroke="#ff0000" stroke-opacity="0.7"/>
  <line x1="110.00" y1="16.00" x2="120.00" y2="16.00" stroke="#ff0000" stroke-opacity="0.7"/>
  <line x1="5.00" y1="24.00" x2="15.00" y2="24.00" stroke="#ff0000" stroke-opacity="0.7"/>
  <line x1="15.00" y1="24.00" x2="25.00" y2="24.00" stroke="#ff0000" stroke-opacity="0.7"/>
  <line x1="25.00" y1="24.00" x2="35.00" y2="24.00" stroke="#ff0000" stroke-opacity="0.7"/>
  <line x1="35.00" y1="24.00" x2="45.00" y2="24.00" stroke="#ff0000" stroke-opacity="0.7"/>
  <line x1="45.00" y1="24.00" x2="55.00" y2="24.00" stroke="#ff0000" stroke-opacity="0.7"/>
  <line x1="55.00" y1="24.00" x2="65.00" y2="24.00" stroke="#ff0000" stroke-opacity="0.7"/>
  <line x1="65.00" y1="24.00" x2="75.00" y2="24.00" stroke="#ff0000" stroke-opacity="0.7"/>
  <line x1="75.00" y1="24.00" x2="85.00" y2="24.00" stroke="#ff0000" stroke-opacity="0.7"/>
  <line x1="85.00" y1="24.00" x2="95.00" y2="24.00" stroke="#ff0000" stroke-opacity="0.7"/>
  <line x1="95.00" y1="24.00" x2="105.00" y2="24.00" stroke="#ff0000" stroke-opacity="0.7"/>
  <line x1="105.00" y1="24.00" x2="115.00" y2="24.00" stroke="#ff0000" stroke-opacity="0.7"/>
  <line x1="115.00" y1="24.00" x2="125.00" y2="24.00" stroke="#ff0000" stroke-opacity="0.7"/>
  <line x1="0.00" y1="32.00" x2="10.00" y2="32.00" stroke="#ff0000" stroke-opacity="0.7"/>
  <line x1="10.00" y1="32.00" x2="20.00" y2="32.00" stroke="#ff0000" stroke-opacity="0.7"/>
  <line x1="20.00" y1="32.00" x2="30.00" y2="32.00" stroke="#ff0000" stroke-opacity="0.7"/>
  <line x1="30.00" y1="32.00" x2="40.00" y2="32.00" stroke="#ff0000" stroke-opacity="0.7"/>
  <line x1="40.00" y1="32.00" x2="50.00" y2="32.00" stroke="#ff0000" stroke-opacity="0.7"/>
  <line x1="50.00" y1="32.00" x2="60.00" y2="32.00" stroke="#ff0000" stroke-opacity="0.7"/>
  <line x1="60.00" y1="32.00" x2="70.00" y2="32.00" stroke="#ff0000" stroke-opacity="0.7"/>
  <line x1="70.00" y1="32.00" x2="80.00" y2="32.00" stroke="#ff0000" stroke-opacity="0.7"/>
  <line x1="80.00" y1="32.00" x2="90.00" y2="32.00" stroke="#ff0000" stroke-opacity="0.7"/>
  <line x1="90.00" y1="32.00" x2="100.00" y2="32.00" stroke="#ff0000" stroke-opacity="0.7"/>
  <line x1="100.00" y1="32.00" x2="110.00" y2="32.00" stroke="#ff0000" stroke-opacity="0.7"/>
  <line x1="110.00" y1="32.00" x2="120.00" y2="32.00" stroke="#ff0000" stroke-opacity="0.7"/>
  <line x1="5.00" y1="40.00" x2="15.00" y2="40.00" stroke="#ff0000" stroke-opacity="0.7"/>
  <line x1="15.00" y1="40.00" x2="25.00" y2="40.00" stroke="#ff0000" stroke-opacity="0.7"/>
  <line x1="25.00" y1="40.00" x2="35.00" y2="40.00" stroke="#ff0000" stroke-opacity="0.7"/>
  <line x1="35.00" y1="40.00" x2="45.00" y2="40.00" stroke="#ff0000" stroke-opacity="0.7"/>
  <line x1="45.00" y1="40.00" x2="55.00" y2="40.00" stroke="#ff0000" stroke-opacity="0.7"/>
  <line x1="55.00" y1="40.00" x2="65.00" y2="40.00" stroke="#ff0000" stroke-opacity="0.7"/>
  <line x1="65.00" y1="40.00" x2="75.00" y2="40.00" stroke="#ff0000" stroke-opacity="0.7"/>
  <line x1="75.00" y1="40.00" x2="85.00" y2="40.00" stroke="#ff0000" stroke-opacity="0.7"/>
  <line x1="85.00" y1="40.00" x2="95.00" y2="40.00" stroke="#ff0000" stroke-opacity="0.7"/>
  <line x1="95.00" y1="40.00" x2="105.00" y2="40.00" stroke="#ff0000" stroke-opacity="0.7"/>
  <line x1="105.00" y1="40.00" x2="115.00" y2="40.00" stroke="#ff0000" stroke-opacity="0.7"/>
  <line x1="115.00" y1="40.00" x2="125.00" y2="40.00" stroke="#ff0000" stroke-opacity="0.7"/>
  <line x1="0.00" y1="48.00" x2="10.00" y2="48.00" stroke="#ff0000" stroke-opacity="0.7"/>
  <line x1="10.00" y1="48.00" x2="20.00" y2="48.00" stroke="#ff0000" stroke-opacity="0.7"/>
  <line x1="20.00" y1="48.00" x2="30.00" y2="48.00" stroke="#ff0000" stroke-opacity="0.7"/>
  <line x1="30.00" y1="48.00" x2="40.00" y2="48.00" stroke="#ff0000" stroke-opacity="0.7"/>
  <line x1="40.00" y1="48.00" x2="50.00" y2="48.00" stroke="#ff0000" stroke-opacity="0.7"/>
  <line x1="50.00" y1="48.00" x2="60.00" y2="48.00" stroke="#ff0000" stroke-opacity="0.7"/>
  <line x1="60.00" y1="48.00" x2="70.00" y2="48.00" stroke="#ff0000" stroke-opacity="0.7"/>
  <line x1="70.00" y1="48.00" x2="80.00" y2="48.00" stroke="#ff0000" stroke-opacity="0.7"/>
  <line x1="80.00" y1="48.00" x2="90.00" y2="48.00" stroke="#ff0000" stroke-opacity="0.7"/>
  <line x1="90.00" y1="48.00" x2="100.00" y2="48.00" stroke="#ff0000" stroke-opacity="0.7"/>
  <line x1="100.00" y1="48.00" x2="110.00" y2="48.00" stroke="#ff0000" stroke-opacity="0.7"/>
  <line x1="110.00" y1="48.00" x2="120.00" y2="48.00" stroke="#ff0000" stroke-opacity="0.7"/>
  <line x1="5.00" y1="56.00" x2="15.00" y2="56.00" stroke="#ff0000" stroke-opacity="0.7"/>
  <line x1="15.00" y1="56.00" x2="25.00" y2="56.00" stroke="#ff0000" stroke-opacity="0.7"/>
  <line x1="25.00" y1="56.00" x2="35.00" y2="56.00" stroke="#ff0000" stroke-opacity="0.7"/>
  <line x1="35.00" y1="56.00" x2="45.00" y2="56.00" stroke="#ff0000" stroke-opacity="0.7"/>
  <line x1="45.00" y1="56.00" x2="55.00" y2="56.00" stroke="#ff0000" stroke-opacity="0.7"/>
  <line x1="55.00" y1="56.00" x2="65.00" y2="56.00" stroke="#ff0000" stroke-opacity="0.7"/>
  <line x1="65.00" y1="56.00" x2="75.00" y2="56.00" stroke="#ff0000" stroke-opacity="0.7"/>
  <line x1="75.00" y1="56.00" x2="85.00" y2="56.00" stroke="#ff0000" stroke-opacity="0.7"/>
  <line x1="85.00" y1="56.00" x2="95.00" y2="56.00" stroke="#ff0000" stroke-opacity="0.7"/>
  <line x1="95.00" y1="56.00" x2="105.00" y2="56.00" stroke="#ff0000" stroke-opacity="0.7"/>
  <line x1="105.00" y1="56.00" x2="115.00" y2="56.00" stroke="#ff0000" stroke-opacity="0.7"/>
  <line x1="115.00" y1="56.00" x2="125.00" y2="56.00" stroke="#ff0000" stroke-opacity="0.7"/>
  <line x1="0.00" y1="64.00" x2="10.00" y2="64.00" stroke="#000000"/>
  <line x1="10.00" y1="64.00" x2="20.00" y2="64.00" stroke="#000000"/>
  <line x1="20.00" y1="64.00" x2="30.00" y2="64.00" stroke="#000000"/>
  <line x1="30.00" y1="64.00" x2="40.00" y2="64.00" stroke="#000000"/>
  <line x1="40.00" y1="64.00" x2="50.00" y2="64.00" stroke="#000000"/>
  <line x1="50.00" y1="64.00" x2="60.00" y2="64.00" stroke="#000000"/>
  <line x1="60.00" y1="64.00" x2="70.00" y2="64.00" stroke="#000000"/>
  <line x1="70.00" y1="64.00" x2="80.00" y2="64.00" stroke="#000000"/>
  <line x1="80.00" y1="64.00" x2="90.00" y2="64.00" stroke="#000000"/>
  <line x1="90.00" y1="64.00" x2="100.00" y2="64.00" stroke="#000000"/>
  <line x1="100.00" y1="64.00" x2="110.00" y2="64.00" stroke="#000000"/>
  <line x1="110.00" y1="64.00" x2="120.00" y2="64.00" stroke="#000000"/>
  <line x1="0.00" y1="0.00" x2="5.00" y2="8.00" stroke="#0000ff" stroke-opacity="0.7"/>
  <line x1="10.00" y1="0.00" x2="5.00" y2="8.00" stroke="#0000ff" stroke-opacity="0.7"/>
  <line x1="10.00" y1="0.00" x2="15.00" y2="8.00" stroke="#0000ff" stroke-opacity="0.7"/>
  <line x1="20.00" y1="0.00" x2="15.00" y2="8.00" stroke="#0000ff" stroke-opacity="0.7"/>
  <line x1="20.00" y1="0.00" x2="25.00" y2="8.00" stroke="#0000ff" stroke-opacity="0.7"/>
  <line x1="30.00" y1="0.00" x2="25.00" y2="8.00" stroke="#0000ff" stroke-opacity="0.7"/>
  <line x1="30.00" y1="0.00" x2="35.00" y2="8.00" stroke="#0000ff" stroke-opacity="0.7"/>
  <line x1="40.00" y1="0.00" x2="35.00" y2="8.00" stroke="#0000ff" stroke-opacity="0.7"/>
  <line x1="40.00" y1="0.00" x2="45.00" y2="8.00" stroke="#0000ff" stroke-opacity="0.7"/>
  <line x1="50.00" y1="0.00" x2="45.00" y2="8.00" stroke="#0000ff" stroke-opacity="0.7"/>
  <line x1="50.00" y1="0.00" x2="55.00" y2="8.00" stroke="#0000ff" stroke-opacity="0.7"/>
  <line x1="60.00" y1="0.00" x2="55.00" y2="8.00" stroke="#0000ff" stroke-opacity="0.7"/>
  <line x1="60.00" y1="0.00" x2="65.00" y2="8.00" stroke="#0000ff" stroke-opacity="0.7"/>
  <line x1="70.00" y1="0.00" x2="65.00" y2="8.00" stroke="#0000ff" stroke-opacity="0.7"/>
  <line x1="70.00" y1="0.00" x2="75.00" y2="8.00" stroke="#0000ff" stroke-opacity="0.7"/>
  <line x1="80.00" y1="0.00" x2="75.00" y2="8.00" stroke="#0000ff" stroke-opacity="0.7"/>
  <line x1="80.00" y1="0.00" x2="85.00" y2="8.00" stroke="#0000ff" stroke-opacity="0.7"/>
  <line x1="90.00" y1="0.00" x2="85.00" y2="8.00" stroke="#0000ff" stroke-opacity="0.7"/>
  <line x1="90.00" y1="0.00" x2="95.00" y2="8.00" stroke="#0000ff" stroke-opacity="0.7"/>
  <line x1="100.00" y1="0.00" x2="95.00" y2="8.00" stroke="#0000ff" stroke-opacity="0.7"/>
  <line x1="100.00" y1="0.00" x2="105.00" y2="8.00" stroke="#0000ff" stroke-opacity="0.7"/>
  <line x1="110.00" y1="0.00" x2="105.00" y2="8.00" stroke="#0000ff" stroke-opacity="0.7"/>
  <line x1="110.00" y1="0.00" x2="115.00" y2="8.00" stroke="#0000ff" stroke-opacity="0.7"/>
  <line x1="120.00" y1="0.00" x2="115.00" y2="8.00" stroke="#0000ff" stroke-opacity="0.7"/>
  <line x1="120.00" y1="0.00" x2="125.00" y2="8.00" stroke="#0000ff" stroke-opacity="0.7"/>
  <line x1="5.00" y1="8.00" x2="0.00" y2="16.00" stroke="#0000ff" stroke-opacity="0.7"/>
  <line x1="5.00" y1="8.00" x2="10.00" y2="16.00" stroke="#0000ff" stroke-opacity="0.7"/>
  <line x1="15.00" y1="8.00" x2="10.00" y2="16.00" stroke="#0000ff" stroke-opacity="0.7"/>
  <line x1="15.00" y1="8.00" x2="20.00" y2="16.00" stroke="#0000ff" stroke-opacity="0.7"/>
  <line x1="25.00" y1="8.00" x2="20.00" y2="16.00" stroke="#0000ff" stroke-opacity="0.7"/>
  <line x1="25.00" y1="8.00" x2="30.00" y2="16.00" stroke="#0000ff" stroke-opacity="0.7"/>
  <line x1="35.00" y1="8.00" x2="30.00" y2="16.00" stroke="#0000ff" stroke-opacity="0.7"/>
  <line x1="35.00" y1="8.00" x2="40.00" y2="16.00" stroke="#0000ff" stroke-opacity="0.7"/>
  <line x1="45.00" y1="8.00" x2="40.00" y2="16.00" stroke="#0000ff" stroke-opacity="0.7"/>
  <line x1="45.00" y1="8.00" x2="50.00" y2="16.00" stroke="#0000ff" stroke-opacity="0.7"/>
  <line x1="55.00" y1="8.00" x2="50.00" y2="16.00" stroke="#0000ff" stroke-opacity="0.7"/>
  <line x1="55.00" y1="8.00" x2="60.00" y2="16.00" stroke="#0000ff" stroke-opacity="0.7"/>
  <line x1="65.00" y1="8.00" x2="60.00" y2="16.00" stroke="#0000ff" stroke-opacity="0.7"/>
  <line x1="65.00" y1="8.00" x2="70.00" y2="16.00" stroke="#0000ff" stroke-opacity="0.7"/>
  <line x1="75.00" y1="8.00" x2="70.00" y2="16.00" stroke="#0000ff" stroke-opacity="0.7"/>
  <line x1="75.00" y1="8.00" x2="80.00" y2="16.00" stroke="#0000ff" stroke-opacity="0.7"/>
  <line x1="85.00" y1="8.00" x2="80.00" y2="16.00" stroke="#0000ff" stroke-opacity="0.7"/>
  <line x1="85.00" y1="8.00" x2="90.00" y2="16.00" stroke="#0000ff" stroke-opacity="0.7"/>
  <line x1="95.00" y1="8.00" x2="90.00" y2="16.00" stroke="#0000ff" stroke-opacity="0.7"/>
  <line x1="95.00" y1="8.00" x2="100.00" y2="16.00" stroke="#0000ff" stroke-opacity="0.7"/>
  <line x1="105.00" y1="8.00" x2="100.00" y2="16.00" stroke="#0000ff" stroke-opacity="0.7"/>
  <line x1="105.00" y1="8.00" x2="110.00" y2="16.00" stroke="#0000ff" stroke-opacity="0.7"/>
  <line x1="115.00" y1="8.00" x2="110.00" y2="16.00" stroke="#0000ff" stroke-opacity="0.7"/>
  <line x1="115.00" y1="8.00" x2="120.00" y2="16.00" stroke="#0000ff" stroke-opacity="0.7"/>
  <line x1="125.00" y1="8.00" x2="120.00" y2="16.00" stroke="#0000ff" stroke-opacity="0.7"/>
  <line x1="0.00" y1="16.00" x2="5.00" y2="24.00" stroke="#0000ff" stroke-opacity="0.7"/>
  <line x1="10.00" y1="16.00" x2="5.00" y2="24.00" stroke="#0000ff" stroke-opacity="0.7"/>
  <line x1="10.00" y1="16.00" x2="15.00" y2="24.00" stroke="#0000ff" stroke-opacity="0.7"/>
  <line x1="20.00" y1="16.00" x2="15.00" y2="24.00" stroke="#0000ff" stroke-opacity="0.7"/>
  <line x1="20.00" y1="16.00" x2="25.00" y2="24.00" stroke="#0000ff" stroke-opacity="0.7"/>
  <line x1="30.00" y1="16.00" x2="25.00" y2="24.00" stroke="#0000ff" stroke-opacity="0.7"/>
  <line x1="30.00" y1="16.00" x2="35.00" y2="24.00" stroke="#0000ff" stroke-opacity="0.7"/>
  <line x1="40.00" y1="16.00" x2="35.00" y2="24.00" stroke="#0000ff" stroke-opacity="0.7"/>
  <line x1="40.00" y1="16.00" x2="45.00" y2="24.00" stroke="#0000ff" stroke-opacity="0.7"/>
  <line x1="50.00" y1="16.00" x2="45.00" y2="24.00" stroke="#0000ff" stroke-opacity="0.7"/>
  <line x1="50.00" y1="16.00" x2="55.00" y2="24.00" stroke="#0000ff" stroke-opacity="0.7"/>
  <line x1="60.00" y1="16.00" x2="55.00" y2="24.00" stroke="#0000ff" stroke-opacity="0.7"/>
  <line x1="60.00" y1="16.00" x2="65.00" y2="24.00" stroke="#0000ff" stroke-opacity="0.7"/>
  <line x1="70.00" y1="16.00" x2="65.00" y2="24.00" stroke="#0000ff" stroke-opacity="0.7"/>
  <line x1="70.00" y1="16.00" x2="75.00" y2="24.00" stroke="#0000ff" stroke-opacity="0.7"/>
  <line x1="80.00" y1="16.00" x2="75.00" y2="24.00" stroke="#0000ff" stroke-opacity="0.7"/>
  <line x1="80.00" y1="16.00" x2="85.00" y2="24.00" stroke="#0000ff" stroke-opacity="0.7"/>
  <line x1="90.00" y1="16.00" x2="85.00" y2="24.00" stroke="#0000ff" stroke-opacity="0.7"/>
  <line x1="90.00" y1="16.00" x2="95.00" y2="24.00" stroke="#0000ff" stroke-opacity="0.7"/>
  <line x1="100.00" y1="16.00" x2="95.00" y2="24.00" stroke="#0000ff" stroke-opacity="0.7"/>
  <line x1="100.00" y1="16.00" x2="105.00" y2="24.00" stroke="#0000ff" stroke-opacity="0.7"/>
  <line x1="110.00" y1="16.00" x2="105.00" y2="24.00" stroke="#0000ff" stroke-opacity="0.7"/>
  <line x1="110.00" y1="16.00" x2="115.00" y2="24.00" stroke="#0000ff" stroke-opacity="0.7"/>
  <line x1="120.00" y1="16.00" x2="115.00" y2="24.00" stroke="#0000ff" stroke-opacity="0.7"/>
  <line x1="120.00" y1="16.00" x2="125.00" y2="24.00" stroke="#0000ff" stroke-opacity="0.7"/>
  <line x1="5.00" y1="24.00" x2="0.00" y2="32.00" stroke="#0000ff" stroke-opacity="0.7"/>
  <line x1="5.00" y1="24.00" x2="10.00" y2="32.00" stroke="#0000ff" stroke-opacity="0.7"/>
  <line x1="15.00" y1="24.00" x2="10.00" y2="32.00" stroke="#0000ff" stroke-opacity="0.7"/>
  <line x1="15.00" y1="24.00" x2="20.00" y2="32.00" stroke="#0000ff" stroke-opacity="0.7"/>
  <line x1="25.00" y1="24.00" x2="20.00" y2="32.00" stroke="#0000ff" stroke-opacity="0.7"/>
  <line x1="25.00" y1="24.00" x2="30.00" y2="32.00" stroke="#0000ff" stroke-opacity="0.7"/>
  <line x1="35.00" y1="24.00" x2="30.00" y2="32.00" stroke="#0000ff" stroke-opacity="0.7"/>
  <line x1="35.00" y1="24.00" x2="40.00" y2="32.00" stroke="#0000ff" stroke-opacity="0.7"/>
  <line x1="45.00" y1="24.00" x2="40.00" y2="32.00" stroke="#0000ff" stroke-opacity="0.7"/>
  <line x1="45.00" y1="24.00" x2="50.00" y2="32.00" stroke="#0000ff" stroke-opacity="0.7"/>
  <line x1="55.00" y1="24.00" x2="50.00" y2="32.00" stroke="#0000ff" stroke-opacity="0.7"/>
  <line x1="55.00" y1="24.00" x2="60.00" y2="32.00" stroke="#0000ff" stroke-opacity="0.7"/>
  <line x1="65.00" y1="24.00" x2="60.00" y2="32.00" stroke="#0000ff" stroke-opacity="0.7"/>
  <line x1="65.00" y1="24.00" x2="70.00" y2="32.00" stroke="#0000ff" stroke-opacity="0.7"/>
  <line x1="75.00" y1="24.00" x2="70.00" y2="32.00" stroke="#0000ff" stroke-opacity="0.7"/>
  <line x1="75.00" y1="24.00" x2="80.00" y2="32.00" stroke="#0000ff" stroke-opacity="0.7"/>
  <line x1="85.00" y1="24.00" x2="80.00" y2="32.00" stroke="#0000ff" stroke-opacity="0.7"/>
  <line x1="85.00" y1="24.00" x2="90.00" y2="32.00" stroke="#0000ff" stroke-opacity="0.7"/>
  <line x1="95.00" y1="24.00" x2="90.00" y2="32.00" stroke="#0000ff" stroke-opacity="0.7"/>
  <line x1="95.00" y1="24.00" x2="100.00" y2="32.00" stroke="#0000ff" stroke-opacity="0.7"/>
  <line x1="105.00" y1="24.00" x2="100.00" y2="32.00" stroke="#0000ff" stroke-opacity="0.7"/>
  <line x1="105.00" y1="24.00" x2="110.00" y2="32.00" stroke="#0000ff" stroke-opacity="0.7"/>
  <line x1="115.00" y1="24.00" x2="110.00" y2="32.00" stroke="#0000ff" stroke-opacity="0.7"/>
  <line x1="115.00" y1="24.00" x2="120.00" y2="32.00" stroke="#0000ff" stroke-opacity="0.7"/>
  <line x1="125.00" y1="24.00" x2="120.00" y2="32.00" stroke="#0000ff" stroke-opacity="0.7"/>
  <line x1="0.00" y1="32.00" x2="5.00" y2="40.00" stroke="#0000ff" stroke-opacity="0.7"/>
  <line x1="10.00" y1="32.00" x2="5.00" y2="40.00" stroke="#0000ff" stroke-opacity="0.7"/>
  <line x1="10.00" y1="32.00" x2="15.00" y2="40.00" stroke="#0000ff" stroke-opacity="0.7"/>
  <line x1="20.00" y1="32.00" x2="15.00" y2="40.00" stroke="#0000ff" stroke-opacity="0.7"/>
  <line x1="20.00" y1="32.00" x2="25.00" y2="40.00" stroke="#0000ff" stroke-opacity="0.7"/>
  <line x1="30.00" y1="32.00" x2="25.00" y2="40.00" stroke="#0000ff" stroke-opacity="0.7"/>
  <line x1="30.00" y1="32.00" x2="35.00" y2="40.00" stroke="#0000ff" stroke-opacity="0.7"/>
  <line x1="40.00" y1="32.00" x2="35.00" y2="40.00" stroke="#0000ff" stroke-opacity="0.7"/>
  <line x1="40.00" y1="32.00" x2="45.00" y2="40.00" stroke="#0000ff" stroke-opacity="0.7"/>
  <line x1="50.00" y1="32.00" x2="45.00" y2="40.00" stroke="#0000ff" stroke-opacity="0.7"/>
  <line x1="50.00" y1="32.00" x2="55.00" y2="40.00" stroke="#0000ff" stroke-opacity="0.7"/>
  <line x1="60.00" y1="32.00" x2="55.00" y2="40.00" stroke="#0000ff" stroke-opacity="0.7"/>
  <line x1="60.00" y1="32.00" x2="65.00" y2="40.00" stroke="#0000ff" stroke-opacity="0.7"/>
  <line x1="70.00" y1="32.00" x2="65.00" y2="40.00" stroke="#0000ff" stroke-opacity="0.7"/>
  <line x1="70.00" y1="32.00" x2="75.00" y2="40.00" stroke="#0000ff" stroke-opacity="0.7"/>
  <line x1="80.00" y1="32.00" x2="75.00" y2="40.00" stroke="#0000ff" stroke-opacity="0.7"/>
  <line x1="80.00" y1="32.00" x2="85.00" y2="40.00" stroke="#0000ff" stroke-opacity="0.7"/>
  <line x1="90.00" y1="32.00" x2="85.00" y2="40.00" stroke="#0000ff" stroke-opacity="0.7"/>
  <line x1="90.00" y1="32.00" x2="95.00" y2="40.00" stroke="#0000ff" stroke-opacity="0.7"/>
  <line x1="100.00" y1="32.00" x2="95.00" y2="40.00" stroke="#0000ff" stroke-opacity="0.7"/>
  <line x1="100.00" y1="32.00" x2="105.00" y2="40.00" stroke="#0000ff" stroke-opacity="0.7"/>
  <line x1="110.00" y1="32.00" x2="105.00" y2="40.00" stroke="#0000ff" stroke-opacity="0.7"/>
  <line x1="110.00" y1="32.00" x2="115.00" y2="40.00" stroke="#0000ff" stroke-opacity="0.7"/>
  <line x1="120.00" y1="32.00" x2="115.00" y2="40.00" stroke="#0000ff" stroke-opacity="0.7"/>
  <line x1="120.00" y1="32.00" x2="125.00" y2="40.00" stroke="#0000ff" stroke-opacity="0.7"/>
  <line x1="5.00" y1="40.00" x2="0.00" y2="48.00" stroke="#0000ff" stroke-opacity="0.7"/>
  <line x1="5.00" y1="40.00" x2="10.00" y2="48.00" stroke="#0000ff" stroke-opacity="0.7"/>
  <line x1="15.00" y1="40.00" x2="10.00" y2="48.00" stroke="#0000ff" stroke-opacity="0.7"/>
  <line x1="15.00" y1="40.00" x2="20.00" y2="48.00" stroke="#0000ff" stroke-opacity="0.7"/>
  <line x1="25.00" y1="40.00" x2="20.00" y2="48.00" stroke="#0000ff" stroke-opacity="0.7"/>
  <line x1="25.00" y1="40.00" x2="30.00" y2="48.00" stroke="#0000ff" stroke-opacity="0.7"/>
  <line x1="35.00" y1="40.00" x2="30.00" y2="48.00" stroke="#0000ff" stroke-opacity="0.7"/>
  <line x1="35.00" y1="40.00" x2="40.00" y2="48.00" stroke="#0000ff" stroke-opacity="0.7"/>
  <line x1="45.00" y1="40.00" x2="40.00" y2="48.00" stroke="#0000ff" stroke-opacity="0.7"/>
  <line x1="45.00" y1="40.00" x2="50.00" y2="48.00" stroke="#0000ff" stroke-opacity="0.7"/>
  <line x1="55.00" y1="40.00" x2="50.00" y2="48.00" stroke="#0000ff" stroke-opacity="0.7"/>
  <line x1="55.00" y1="40.00" x2="60.00" y2="48.00" stroke="#0000ff" stroke-opacity="0.7"/>
  <line x1="65.00" y1="40.00" x2="60.00" y2="48.00" stroke="#0000ff" stroke-opacity="0.7"/>
  <line x1="65.00" y1="40.00" x2="70.00" y2="48.00" stroke="#0000ff" stroke-opacity="0.7"/>
  <line x1="75.00" y1="40.00" x2="70.00" y2="48.00" stroke="#0000ff" stroke-opacity="0.7"/>
  <line x1="75.00" y1="40.00" x2="80.00" y2="48.00" stroke="#0000ff" stroke-opacity="0.7"/>
  <line x1="85.00" y1="40.00" x2="80.00" y2="48.00" stroke="#0000ff" stroke-opacity="0.7"/>
  <line x1="85.00" y1="40.00" x2="90.00" y2="48.00" stroke="#0000ff" stroke-opacity="0.7"/>
  <line x1="95.00" y1="40.00" x2="90.00" y2="48.00" stroke="#0000ff" stroke-opacity="0.7"/>
  <line x1="95.00" y1="40.00" x2="100.00" y2="48.00" stroke="#0000ff" stroke-opacity="0.7"/>
  <line x1="105.00" y1="40.00" x2="100.00" y2="48.00" stroke="#0000ff" stroke-opacity="0.7"/>
  <line x1="105.00" y1="40.00" x2="110.00" y2="48.00" stroke="#0000ff" stroke-opacity="0.7"/>
  <line x1="115.00" y1="40.00" x2="110.00" y2="48.00" stroke="#0000ff" stroke-opacity="0.7"/>
  <line x1="115.00" y1="40.00" x2="120.00" y2="48.00" stroke="#0000ff" stroke-opacity="0.7"/>
  <line x1="125.00" y1="40.00" x2="120.00" y2="48.00" stroke="#0000ff" stroke-opacity="0.7"/>
  <line x1="0.00" y1="48.00" x2="5.00" y2="56.00" stroke="#0000ff" stroke-opacity="0.7"/>
  <line x1="10.00" y1="48.00" x2="5.00" y2="56.00" stroke="#0000ff" stroke-opacity="0.7"/>
  <line x1="10.00" y1="48.00" x2="15.00" y2="56.00" stroke="#0000ff" stroke-opacity="0.7"/>
  <line x1="20.00" y1="48.00" x2="15.00" y2="56.00" stroke="#0000ff" stroke-opacity="0.7"/>
  <line x1="20.00" y1="48.00" x2="25.00" y2="56.00" stroke="#0000ff" stroke-opacity="0.7"/>
  <line x1="30.00" y1="48.00" x2="25.00" y2="56.00" stroke="#0000ff" stroke-opacity="0.7"/>
  <line x1="30.00" y1="48.00" x2="35.00" y2="56.00" stroke="#0000ff" stroke-opacity="0.7"/>
  <line x1="40.00" y1="48.00" x2="35.00" y2="56.00" stroke="#0000ff" stroke-opacity="0.7"/>
  <line x1="40.00" y1="48.00" x2="45.00" y2="56.00" stroke="#0000ff" stroke-opacity="0.7"/>
  <line x1="50.00" y1="48.00" x2="45.00" y2="56.00" stroke="#0000ff" stroke-opacity="0.7"/>
  <line x1="50.00" y1="48.00" x2="55.00" y2="56.00" stroke="#0000ff" stroke-opacity="0.7"/>
  <line x1="60.00" y1="48.00" x2="55.00" y2="56.00" stroke="#0000ff" stroke-opacity="0.7"/>
  <line x1="60.00" y1="48.00" x2="65.00" y2="56.00" stroke="#0000ff" stroke-opacity="0.7"/>
  <line x1="70.00" y1="48.00" x2="65.00" y2="56.00" stroke="#0000ff" stroke-opacity="0.7"/>
  <line x1="70.00" y1="48.00" x2="75.00" y2="56.00" stroke="#0000ff" stroke-opacity="0.7"/>
  <line x1="80.00" y1="48.00" x2="75.00" y2="56.00" stroke="#0000ff" stroke-opacity="0.7"/>
  <line x1="80.00" y1="48.00" x2="85.00" y2="56.00" stroke="#0000ff" stroke-opacity="0.7"/>
  <line x1="90.00" y1="48.00" x2="85.00" y2="56.00" stroke="#0000ff" stroke-opacity="0.7"/>
  <line x1="90.00" y1="48.00" x2="95.00" y2="56.00" stroke="#0000ff" stroke-opacity="0.7"/>
  <line x1="100.00" y1="48.00" x2="95.00" y2="56.00" stroke="#0000ff" stroke-opacity="0.7"/>
  <line x1="100.00" y1="48.00" x2="105.00" y2="56.00" stroke="#0000ff" stroke-opacity="0.7"/>
  <line x1="110.00" y1="48.00" x2="105.00" y2="56.00" stroke="#0000ff" stroke-opacity="0.7"/>
  <line x1="110.00" y1="48.00" x2="115.00" y2="56.00" stroke="#0000ff" stroke-opacity="0.7"/>
  <line x1="120.00" y1="48.00" x2="115.00" y2="56.00" stroke="#0000ff" stroke-opacity="0.7"/>
  <line x1="120.00" y1="48.00" x2="125.00" y2="56.00" stroke="#0000ff" stroke-opacity="0.7"/>
  <line x1="5.00" y1="56.00" x2="0.00" y2="64.00" stroke="#0000ff" stroke-opacity="0.7"/>
  <line x1="5.00" y1="56.00" x2="10.00" y2="64.00" stroke="#0000ff" stroke-opacity="0.7"/>
  <line x1="15.00" y1="56.00" x2="10.00" y2="64.00" stroke="#0000ff" stroke-opacity="0.7"/>
  <line x1="15.00" y1="56.00" x2="20.00" y2="64.00" stroke="#0000ff" stroke-opacity="0.7"/>
  <line x1="25.00" y1="56.00" x2="20.00" y2="64.00" stroke="#0000ff" stroke-opacity="0.7"/>
  <line x1="25.00" y1="56.00" x2="30.00" y2="64.00" stroke="#0000ff" stroke-opacity="0.7"/>
  <line x1="35.00" y1="56.00" x2="30.00" y2="64.00" stroke="#0000ff" stroke-opacity="0.7"/>
  <line x1="35.00" y1="56.00" x2="40.00" y2="64.00" stroke="#0000ff" stroke-opacity="0.7"/>
  <line x1="45.00" y1="56.00" x2="40.00" y2="64.00" stroke="#0000ff" stroke-opacity="0.7"/>
  <line x1="45.00" y1="56.00" x2="50.00" y2="64.00" stroke="#0000ff" stroke-opacity="0.7"/>
  <line x1="55.00" y1="56.00" x2="50.00" y2="64.00" stroke="#0000ff" stroke-opacity="0.7"/>
  <line x1="55.00" y1="56.00" x2="60.00" y2="64.00" stroke="#0000ff" stroke-opacity="0.7"/>
  <line x1="65.00" y1="56.00" x2="60.00" y2="64.00" stroke="#0000ff" stroke-opacity="0.7"/>
  <line x1="65.00" y1="56.00" x2="70.00" y2="64.00" stroke="#0000ff" stroke-opacity="0.7"/>
  <line x1="75.00" y1="56.00" x2="70.00" y2="64.00" stroke="#0000ff" stroke-opacity="0.7"/>
  <line x1="75.00" y1="56.00" x2="80.00" y2="64.00" stroke="#0000ff" stroke-opacity="0.7"/>
  <line x1="85.00" y1="56.00" x2="80.00" y2="64.00" stroke="#0000ff" stroke-opacity="0.7"/>
  <line x1="85.00" y1="56.00" x2="90.00" y2="64.00" stroke="#0000ff" stroke-opacity="0.7"/>
  <line x1="95.00" y1="56.00" x2="90.00" y2="64.00" stroke="#0000ff" stroke-opacity="0.7"/>
  <line x1="95.00" y1="56.00" x2="100.00" y2="64.00" stroke="#0000ff" stroke-opacity="0.7"/>
  <line x1="105.00" y1="56.00" x2="100.00" y2="64.00" stroke="#0000ff" stroke-opacity="0.7"/>
  <line x1="105.00" y1="56.00" x2="110.00" y2="64.00" stroke="#0000ff" stroke-opacity="0.7"/>
  <line x1="115.00" y1="56.00" x2="110.00" y2="64.00" stroke="#0000ff" stroke-opacity="0.7"/>
  <line x1="115.00" y1="56.00" x2="120.00" y2="64.00" stroke="#0000ff" stroke-opacity="0.7"/>
  <line x1="125.00" y1="56.00" x2="120.00" y2="64.00" stroke="#0000ff" stroke-opacity="0.7"/>
  <line x1="0.00" y1="0.00" x2="5.00" y2="8.00" stroke="#000000"/>
  <line x1="120.00" y1="0.00" x2="125.00" y2="8.00" stroke="#000000"/>
  <line x1="5.00" y1="8.00" x2="0.00" y2="16.00" stroke="#000000"/>
  <line x1="125.00" y1="8.00" x2="120.00" y2="16.00" stroke="#000000"/>
  <line x1="0.00" y1="16.00" x2="5.00" y2="24.00" stroke="#000000"/>
  <line x1="120.00" y1="16.00" x2="125.00" y2="24.00" stroke="#000000"/>
  <line x1="5.00" y1="24.00" x2="0.00" y2="32.00" stroke="#000000"/>
  <line x1="125.00" y1="24.00" x2="120.00" y2="32.00" stroke="#000000"/>
  <line x1="0.00" y1="32.00" x2="5.00" y2="40.00" stroke="#000000"/>
  <line x1="120.00" y1="32.00" x2="125.00" y2="40.00" stroke="#000000"/>
  <line x1="5.00" y1="40.00" x2="0.00" y2="48.00" stroke="#000000"/>
  <line x1="125.00" y1="40.00" x2="120.00" y2="48.00" stroke="#000000"/>
  <line x1="0.00" y1="48.00" x2="5.00" y2="56.00" stroke="#000000"/>
  <line x1="120.00" y1="48.00" x2="125.00" y2="56.00" stroke="#000000"/>
  <line x1="5.00" y1="56.00" x2="0.00" y2="64.00" stroke="#000000"/>
  <line x1="125.00" y1="56.00" x2="120.00" y2="64.00" stroke="#000000"/>
</svg>
