<svg xmlns="http://www.w3.org/2000/svg" width="109.7mm" height="54.2mm" viewBox="-3.10 -3.10 109.71 54.21" fill="none" stroke-width="0.517" stroke-linecap="round">
  <title>Foldable crease pattern</title>
  <desc>origamisimulator convention: stroke #ff0000=mountain, #0000ff=valley, #000000=border, #00ff00=cut, #ffff00=facet; line opacity = fold angle (1.0=180deg, 0.5=90deg). Scale: 1 unit = 1 mm. Laser: layer "cut" = cut-through, layer "score" = fold/score. Flat-foldable: yes (Maekawa+Kawasaki hold at all 45 interior vertices).</desc>
  <g id="cut" data-laser="cut">
    <line x1="0.00" y1="0.00" x2="3.50" y2="8.00" stroke="#000000"/>
    <line x1="3.50" y1="8.00" x2="0.00" y2="16.00" stroke="#000000"/>
    <line x1="0.00" y1="16.00" x2="3.50" y2="24.00" stroke="#000000"/>
    <line x1="3.50" y1="24.00" x2="0.00" y2="32.00" stroke="#000000"/>
    <line x1="0.00" y1="32.00" x2="3.50" y2="40.00" stroke="#000000"/>
    <line x1="3.50" y1="40.00" x2="0.00" y2="48.00" stroke="#000000"/>
    <line x1="100.00" y1="0.00" x2="103.50" y2="8.00" stroke="#000000"/>
    <line x1="103.50" y1="8.00" x2="100.00" y2="16.00" stroke="#000000"/>
    <line x1="100.00" y1="16.00" x2="103.50" y2="24.00" stroke="#000000"/>
    <line x1="103.50" y1="24.00" x2="100.00" y2="32.00" stroke="#000000"/>
    <line x1="100.00" y1="32.00" x2="103.50" y2="40.00" stroke="#000000"/>
    <line x1="103.50" y1="40.00" x2="100.00" y2="48.00" stroke="#000000"/>
    <line x1="0.00" y1="0.00" x2="10.00" y2="0.00" stroke="#000000"/>
    <line x1="10.00" y1="0.00" x2="20.00" y2="0.00" stroke="#000000"/>
    <line x1="20.00" y1="0.00" x2="30.00" y2="0.00" stroke="#000000"/>
    <line x1="30.00" y1="0.00" x2="40.00" y2="0.00" stroke="#000000"/>
    <line x1="40.00" y1="0.00" x2="50.00" y2="0.00" stroke="#000000"/>
    <line x1="50.00" y1="0.00" x2="60.00" y2="0.00" stroke="#000000"/>
    <line x1="60.00" y1="0.00" x2="70.00" y2="0.00" stroke="#000000"/>
    <line x1="70.00" y1="0.00" x2="80.00" y2="0.00" stroke="#000000"/>
    <line x1="80.00" y1="0.00" x2="90.00" y2="0.00" stroke="#000000"/>
    <line x1="90.00" y1="0.00" x2="100.00" y2="0.00" stroke="#000000"/>
    <line x1="0.00" y1="48.00" x2="10.00" y2="48.00" stroke="#000000"/>
    <line x1="10.00" y1="48.00" x2="20.00" y2="48.00" stroke="#000000"/>
    <line x1="20.00" y1="48.00" x2="30.00" y2="48.00" stroke="#000000"/>
    <line x1="30.00" y1="48.00" x2="40.00" y2="48.00" stroke="#000000"/>
    <line x1="40.00" y1="48.00" x2="50.00" y2="48.00" stroke="#000000"/>
    <line x1="50.00" y1="48.00" x2="60.00" y2="48.00" stroke="#000000"/>
    <line x1="60.00" y1="48.00" x2="70.00" y2="48.00" stroke="#000000"/>
    <line x1="70.00" y1="48.00" x2="80.00" y2="48.00" stroke="#000000"/>
    <line x1="80.00" y1="48.00" x2="90.00" y2="48.00" stroke="#000000"/>
    <line x1="90.00" y1="48.00" x2="100.00" y2="48.00" stroke="#000000"/>
  </g>
  <g id="score" data-laser="score">
    <line x1="10.00" y1="0.00" x2="13.50" y2="8.00" stroke="#0000ff" opacity="0.600"/>
    <line x1="13.50" y1="8.00" x2="10.00" y2="16.00" stroke="#ff0000" opacity="0.600"/>
    <line x1="10.00" y1="16.00" x2="13.50" y2="24.00" stroke="#0000ff" opacity="0.600"/>
    <line x1="13.50" y1="24.00" x2="10.00" y2="32.00" stroke="#ff0000" opacity="0.600"/>
    <line x1="10.00" y1="32.00" x2="13.50" y2="40.00" stroke="#0000ff" opacity="0.600"/>
    <line x1="13.50" y1="40.00" x2="10.00" y2="48.00" stroke="#ff0000" opacity="0.600"/>
    <line x1="20.00" y1="0.00" x2="23.50" y2="8.00" stroke="#0000ff" opacity="0.600"/>
    <line x1="23.50" y1="8.00" x2="20.00" y2="16.00" stroke="#ff0000" opacity="0.600"/>
    <line x1="20.00" y1="16.00" x2="23.50" y2="24.00" stroke="#0000ff" opacity="0.600"/>
    <line x1="23.50" y1="24.00" x2="20.00" y2="32.00" stroke="#ff0000" opacity="0.600"/>
    <line x1="20.00" y1="32.00" x2="23.50" y2="40.00" stroke="#0000ff" opacity="0.600"/>
    <line x1="23.50" y1="40.00" x2="20.00" y2="48.00" stroke="#ff0000" opacity="0.600"/>
    <line x1="30.00" y1="0.00" x2="33.50" y2="8.00" stroke="#0000ff" opacity="0.600"/>
    <line x1="33.50" y1="8.00" x2="30.00" y2="16.00" stroke="#ff0000" opacity="0.600"/>
    <line x1="30.00" y1="16.00" x2="33.50" y2="24.00" stroke="#0000ff" opacity="0.600"/>
    <line x1="33.50" y1="24.00" x2="30.00" y2="32.00" stroke="#ff0000" opacity="0.600"/>
    <line x1="30.00" y1="32.00" x2="33.50" y2="40.00" stroke="#0000ff" opacity="0.600"/>
    <line x1="33.50" y1="40.00" x2="30.00" y2="48.00" stroke="#ff0000" opacity="0.600"/>
    <line x1="40.00" y1="0.00" x2="43.50" y2="8.00" stroke="#0000ff" opacity="0.600"/>
    <line x1="43.50" y1="8.00" x2="40.00" y2="16.00" stroke="#ff0000" opacity="0.600"/>
    <line x1="40.00" y1="16.00" x2="43.50" y2="24.00" stroke="#0000ff" opacity="0.600"/>
    <line x1="43.50" y1="24.00" x2="40.00" y2="32.00" stroke="#ff0000" opacity="0.600"/>
    <line x1="40.00" y1="32.00" x2="43.50" y2="40.00" stroke="#0000ff" opacity="0.600"/>
    <line x1="43.50" y1="40.00" x2="40.00" y2="48.00" stroke="#ff0000" opacity="0.600"/>
    <line x1="50.00" y1="0.00" x2="53.50" y2="8.00" stroke="#0000ff" opacity="0.600"/>
    <line x1="53.50" y1="8.00" x2="50.00" y2="16.00" stroke="#ff0000" opacity="0.600"/>
    <line x1="50.00" y1="16.00" x2="53.50" y2="24.00" stroke="#0000ff" opacity="0.600"/>
    <line x1="53.50" y1="24.00" x2="50.00" y2="32.00" stroke="#ff0000" opacity="0.600"/>
    <line x1="50.00" y1="32.00" x2="53.50" y2="40.00" stroke="#0000ff" opacity="0.600"/>
    <line x1="53.50" y1="40.00" x2="50.00" y2="48.00" stroke="#ff0000" opacity="0.600"/>
    <line x1="60.00" y1="0.00" x2="63.50" y2="8.00" stroke="#0000ff" opacity="0.600"/>
    <line x1="63.50" y1="8.00" x2="60.00" y2="16.00" stroke="#ff0000" opacity="0.600"/>
    <line x1="60.00" y1="16.00" x2="63.50" y2="24.00" stroke="#0000ff" opacity="0.600"/>
    <line x1="63.50" y1="24.00" x2="60.00" y2="32.00" stroke="#ff0000" opacity="0.600"/>
    <line x1="60.00" y1="32.00" x2="63.50" y2="40.00" stroke="#0000ff" opacity="0.600"/>
    <line x1="63.50" y1="40.00" x2="60.00" y2="48.00" stroke="#ff0000" opacity="0.600"/>
    <line x1="70.00" y1="0.00" x2="73.50" y2="8.00" stroke="#0000ff" opacity="0.600"/>
    <line x1="73.50" y1="8.00" x2="70.00" y2="16.00" stroke="#ff0000" opacity="0.600"/>
    <line x1="70.00" y1="16.00" x2="73.50" y2="24.00" stroke="#0000ff" opacity="0.600"/>
    <line x1="73.50" y1="24.00" x2="70.00" y2="32.00" stroke="#ff0000" opacity="0.600"/>
    <line x1="70.00" y1="32.00" x2="73.50" y2="40.00" stroke="#0000ff" opacity="0.600"/>
    <line x1="73.50" y1="40.00" x2="70.00" y2="48.00" stroke="#ff0000" opacity="0.600"/>
    <line x1="80.00" y1="0.00" x2="83.50" y2="8.00" stroke="#0000ff" opacity="0.600"/>
    <line x1="83.50" y1="8.00" x2="80.00" y2="16.00" stroke="#ff0000" opacity="0.600"/>
    <line x1="80.00" y1="16.00" x2="83.50" y2="24.00" stroke="#0000ff" opacity="0.600"/>
    <line x1="83.50" y1="24.00" x2="80.00" y2="32.00" stroke="#ff0000" opacity="0.600"/>
    <line x1="80.00" y1="32.00" x2="83.50" y2="40.00" stroke="#0000ff" opacity="0.600"/>
    <line x1="83.50" y1="40.00" x2="80.00" y2="48.00" stroke="#ff0000" opacity="0.600"/>
    <line x1="90.00" y1="0.00" x2="93.50" y2="8.00" stroke="#0000ff" opacity="0.600"/>
    <line x1="93.50" y1="8.00" x2="90.00" y2="16.00" stroke="#ff0000" opacity="0.600"/>
    <line x1="90.00" y1="16.00" x2="93.50" y2="24.00" stroke="#0000ff" opacity="0.600"/>
    <line x1="93.50" y1="24.00" x2="90.00" y2="32.00" stroke="#ff0000" opacity="0.600"/>
    <line x1="90.00" y1="32.00" x2="93.50" y2="40.00" stroke="#0000ff" opacity="0.600"/>
    <line x1="93.50" y1="40.00" x2="90.00" y2="48.00" stroke="#ff0000" opacity="0.600"/>
    <line x1="3.50" y1="8.00" x2="13.50" y2="8.00" stroke="#ff0000" opacity="0.600"/>
    <line x1="13.50" y1="8.00" x2="23.50" y2="8.00" stroke="#ff0000" opacity="0.600"/>
    <line x1="23.50" y1="8.00" x2="33.50" y2="8.00" stroke="#ff0000" opacity="0.600"/>
    <line x1="33.50" y1="8.00" x2="43.50" y2="8.00" stroke="#ff0000" opacity="0.600"/>
    <line x1="43.50" y1="8.00" x2="53.50" y2="8.00" stroke="#ff0000" opacity="0.600"/>
    <line x1="53.50" y1="8.00" x2="63.50" y2="8.00" stroke="#ff0000" opacity="0.600"/>
    <line x1="63.50" y1="8.00" x2="73.50" y2="8.00" stroke="#ff0000" opacity="0.600"/>
    <line x1="73.50" y1="8.00" x2="83.50" y2="8.00" stroke="#ff0000" opacity="0.600"/>
    <line x1="83.50" y1="8.00" x2="93.50" y2="8.00" stroke="#ff0000" opacity="0.600"/>
    <line x1="93.50" y1="8.00" x2="103.50" y2="8.00" stroke="#ff0000" opacity="0.600"/>
    <line x1="0.00" y1="16.00" x2="10.00" y2="16.00" stroke="#ff0000" opacity="0.600"/>
    <line x1="10.00" y1="16.00" x2="20.00" y2="16.00" stroke="#ff0000" opacity="0.600"/>
    <line x1="20.00" y1="16.00" x2="30.00" y2="16.00" stroke="#ff0000" opacity="0.600"/>
    <line x1="30.00" y1="16.00" x2="40.00" y2="16.00" stroke="#ff0000" opacity="0.600"/>
    <line x1="40.00" y1="16.00" x2="50.00" y2="16.00" stroke="#ff0000" opacity="0.600"/>
    <line x1="50.00" y1="16.00" x2="60.00" y2="16.00" stroke="#ff0000" opacity="0.600"/>
    <line x1="60.00" y1="16.00" x2="70.00" y2="16.00" stroke="#ff0000" opacity="0.600"/>
    <line x1="70.00" y1="16.00" x2="80.00" y2="16.00" stroke="#ff0000" opacity="0.600"/>
    <line x1="80.00" y1="16.00" x2="90.00" y2="16.00" stroke="#ff0000" opacity="0.600"/>
    <line x1="90.00" y1="16.00" x2="100.00" y2="16.00" stroke="#ff0000" opacity="0.600"/>
    <line x1="3.50" y1="24.00" x2="13.50" y2="24.00" stroke="#ff0000" opacity="0.600"/>
    <line x1="13.50" y1="24.00" x2="23.50" y2="24.00" stroke="#ff0000" opacity="0.600"/>
    <line x1="23.50" y1="24.00" x2="33.50" y2="24.00" stroke="#ff0000" opacity="0.600"/>
    <line x1="33.50" y1="24.00" x2="43.50" y2="24.00" stroke="#ff0000" opacity="0.600"/>
    <line x1="43.50" y1="24.00" x2="53.50" y2="24.00" stroke="#ff0000" opacity="0.600"/>
    <line x1="53.50" y1="24.00" x2="63.50" y2="24.00" stroke="#ff0000" opacity="0.600"/>
    <line x1="63.50" y1="24.00" x2="73.50" y2="24.00" stroke="#ff0000" opacity="0.600"/>
    <line x1="73.50" y1="24.00" x2="83.50" y2="24.00" stroke="#ff0000" opacity="0.600"/>
    <line x1="83.50" y1="24.00" x2="93.50" y2="24.00" stroke="#ff0000" opacity="0.600"/>
    <line x1="93.50" y1="24.00" x2="103.50" y2="24.00" stroke="#ff0000" opacity="0.600"/>
    <line x1="0.00" y1="32.00" x2="10.00" y2="32.00" stroke="#ff0000" opacity="0.600"/>
    <line x1="10.00" y1="32.00" x2="20.00" y2="32.00" stroke="#ff0000" opacity="0.600"/>
    <line x1="20.00" y1="32.00" x2="30.00" y2="32.00" stroke="#ff0000" opacity="0.600"/>
    <line x1="30.00" y1="32.00" x2="40.00" y2="32.00" stroke="#ff0000" opacity="0.600"/>
    <line x1="40.00" y1="32.00" x2="50.00" y2="32.00" stroke="#ff0000" opacity="0.600"/>
    <line x1="50.00" y1="32.00" x2="60.00" y2="32.00" stroke="#ff0000" opacity="0.600"/>
    <line x1="60.00" y1="32.00" x2="70.00" y2="32.00" stroke="#ff0000" opacity="0.600"/>
    <line x1="70.00" y1="32.00" x2="80.00" y2="32.00" stroke="#ff0000" opacity="0.600"/>
    <line x1="80.00" y1="32.00" x2="90.00" y2="32.00" stroke="#ff0000" opacity="0.600"/>
    <line x1="90.00" y1="32.00" x2="100.00" y2="32.00" stroke="#ff0000" opacity="0.600"/>
    <line x1="3.50" y1="40.00" x2="13.50" y2="40.00" stroke="#ff0000" opacity="0.600"/>
    <line x1="13.50" y1="40.00" x2="23.50" y2="40.00" stroke="#ff0000" opacity="0.600"/>
    <line x1="23.50" y1="40.00" x2="33.50" y2="40.00" stroke="#ff0000" opacity="0.600"/>
    <line x1="33.50" y1="40.00" x2="43.50" y2="40.00" stroke="#ff0000" opacity="0.600"/>
    <line x1="43.50" y1="40.00" x2="53.50" y2="40.00" stroke="#ff0000" opacity="0.600"/>
    <line x1="53.50" y1="40.00" x2="63.50" y2="40.00" stroke="#ff0000" opacity="0.600"/>
    <line x1="63.50" y1="40.00" x2="73.50" y2="40.00" stroke="#ff0000" opacity="0.600"/>
    <line x1="73.50" y1="40.00" x2="83.50" y2="40.00" stroke="#ff0000" opacity="0.600"/>
    <line x1="83.50" y1="40.00" x2="93.50" y2="40.00" stroke="#ff0000" opacity="0.600"/>
    <line x1="93.50" y1="40.00" x2="103.50" y2="40.00" stroke="#ff0000" opacity="0.600"/>
    <line x1="0.00" y1="0.00" x2="13.50" y2="8.00" stroke="#ffff00"/>
    <line x1="10.00" y1="0.00" x2="23.50" y2="8.00" stroke="#ffff00"/>
    <line x1="20.00" y1="0.00" x2="33.50" y2="8.00" stroke="#ffff00"/>
    <line x1="30.00" y1="0.00" x2="43.50" y2="8.00" stroke="#ffff00"/>
    <line x1="40.00" y1="0.00" x2="53.50" y2="8.00" stroke="#ffff00"/>
    <line x1="50.00" y1="0.00" x2="63.50" y2="8.00" stroke="#ffff00"/>
    <line x1="60.00" y1="0.00" x2="73.50" y2="8.00" stroke="#ffff00"/>
    <line x1="70.00" y1="0.00" x2="83.50" y2="8.00" stroke="#ffff00"/>
    <line x1="80.00" y1="0.00" x2="93.50" y2="8.00" stroke="#ffff00"/>
    <line x1="90.00" y1="0.00" x2="103.50" y2="8.00" stroke="#ffff00"/>
    <line x1="3.50" y1="8.00" x2="10.00" y2="16.00" stroke="#ffff00"/>
    <line x1="13.50" y1="8.00" x2="20.00" y2="16.00" stroke="#ffff00"/>
    <line x1="23.50" y1="8.00" x2="30.00" y2="16.00" stroke="#ffff00"/>
    <line x1="33.50" y1="8.00" x2="40.00" y2="16.00" stroke="#ffff00"/>
    <line x1="43.50" y1="8.00" x2="50.00" y2="16.00" stroke="#ffff00"/>
    <line x1="53.50" y1="8.00" x2="60.00" y2="16.00" stroke="#ffff00"/>
    <line x1="63.50" y1="8.00" x2="70.00" y2="16.00" stroke="#ffff00"/>
    <line x1="73.50" y1="8.00" x2="80.00" y2="16.00" stroke="#ffff00"/>
    <line x1="83.50" y1="8.00" x2="90.00" y2="16.00" stroke="#ffff00"/>
    <line x1="93.50" y1="8.00" x2="100.00" y2="16.00" stroke="#ffff00"/>
    <line x1="0.00" y1="16.00" x2="13.50" y2="24.00" stroke="#ffff00"/>
    <line x1="10.00" y1="16.00" x2="23.50" y2="24.00" stroke="#ffff00"/>
    <line x1="20.00" y1="16.00" x2="33.50" y2="24.00" stroke="#ffff00"/>
    <line x1="30.00" y1="16.00" x2="43.50" y2="24.00" stroke="#ffff00"/>
    <line x1="40.00" y1="16.00" x2="53.50" y2="24.00" stroke="#ffff00"/>
    <line x1="50.00" y1="16.00" x2="63.50" y2="24.00" stroke="#ffff00"/>
    <line x1="60.00" y1="16.00" x2="73.50" y2="24.00" stroke="#ffff00"/>
    <line x1="70.00" y1="16.00" x2="83.50" y2="24.00" stroke="#ffff00"/>
    <line x1="80.00" y1="16.00" x2="93.50" y2="24.00" stroke="#ffff00"/>
    <line x1="90.00" y1="16.00" x2="103.50" y2="24.00" stroke="#ffff00"/>
    <line x1="3.50" y1="24.00" x2="10.00" y2="32.00" stroke="#ffff00"/>
    <line x1="13.50" y1="24.00" x2="20.00" y2="32.00" stroke="#ffff00"/>
    <line x1="23.50" y1="24.00" x2="30.00" y2="32.00" stroke="#ffff00"/>
    <line x1="33.50" y1="24.00" x2="40.00" y2="32.00" stroke="#ffff00"/>
    <line x1="43.50" y1="24.00" x2="50.00" y2="32.00" stroke="#ffff00"/>
    <line x1="53.50" y1="24.00" x2="60.00" y2="32.00" stroke="#ffff00"/>
    <line x1="63.50" y1="24.00" x2="70.00" y2="32.00" stroke="#ffff00"/>
    <line x1="73.50" y1="24.00" x2="80.00" y2="32.00" stroke="#ffff00"/>
    <line x1="83.50" y1="24.00" x2="90.00" y2="32.00" stroke="#ffff00"/>
    <line x1="93.50" y1="24.00" x2="100.00" y2="32.00" stroke="#ffff00"/>
    <line x1="0.00" y1="32.00" x2="13.50" y2="40.00" stroke="#ffff00"/>
    <line x1="10.00" y1="32.00" x2="23.50" y2="40.00" stroke="#ffff00"/>
    <line x1="20.00" y1="32.00" x2="33.50" y2="40.00" stroke="#ffff00"/>
    <line x1="30.00" y1="32.00" x2="43.50" y2="40.00" stroke="#ffff00"/>
    <line x1="40.00" y1="32.00" x2="53.50" y2="40.00" stroke="#ffff00"/>
    <line x1="50.00" y1="32.00" x2="63.50" y2="40.00" stroke="#ffff00"/>
    <line x1="60.00" y1="32.00" x2="73.50" y2="40.00" stroke="#ffff00"/>
    <line x1="70.00" y1="32.00" x2="83.50" y2="40.00" stroke="#ffff00"/>
    <line x1="80.00" y1="32.00" x2="93.50" y2="40.00" stroke="#ffff00"/>
    <line x1="90.00" y1="32.00" x2="103.50" y2="40.00" stroke="#ffff00"/>
    <line x1="3.50" y1="40.00" x2="10.00" y2="48.00" stroke="#ffff00"/>
    <line x1="13.50" y1="40.00" x2="20.00" y2="48.00" stroke="#ffff00"/>
    <line x1="23.50" y1="40.00" x2="30.00" y2="48.00" stroke="#ffff00"/>
    <line x1="33.50" y1="40.00" x2="40.00" y2="48.00" stroke="#ffff00"/>
    <line x1="43.50" y1="40.00" x2="50.00" y2="48.00" stroke="#ffff00"/>
    <line x1="53.50" y1="40.00" x2="60.00" y2="48.00" stroke="#ffff00"/>
    <line x1="63.50" y1="40.00" x2="70.00" y2="48.00" stroke="#ffff00"/>
    <line x1="73.50" y1="40.00" x2="80.00" y2="48.00" stroke="#ffff00"/>
    <line x1="83.50" y1="40.00" x2="90.00" y2="48.00" stroke="#ffff00"/>
    <line x1="93.50" y1="40.00" x2="100.00" y2="48.00" stroke="#ffff00"/>
  </g>
</svg>
