<svg xmlns="http://www.w3.org/2000/svg" width="129.1mm" height="55.3mm" viewBox="-3.65 -3.65 129.09 55.31" fill="none" stroke-width="0.609" stroke-linecap="round">
  <title>Foldable crease pattern</title>
  <desc>origamisimulator convention: stroke #ff0000=mountain, #0000ff=valley, #000000=border, #00ff00=cut, #ffff00=facet; line opacity = fold angle (1.0=180deg, 0.5=90deg). Scale: 1 unit = 1 mm. Laser: layer "cut" = cut-through, layer "score" = fold/score. Flat-foldable: no (folds to a 3D shell; 44/55 interior vertices violate the theorems).</desc>
  <g id="cut" data-laser="cut">
    <line x1="20.78" y1="0.00" x2="26.78" y2="0.00" stroke="#000000"/>
    <line x1="26.78" y1="0.00" x2="32.78" y2="0.00" stroke="#000000"/>
    <line x1="32.78" y1="0.00" x2="38.78" y2="0.00" stroke="#000000"/>
    <line x1="38.78" y1="0.00" x2="44.78" y2="0.00" stroke="#000000"/>
    <line x1="44.78" y1="0.00" x2="50.78" y2="0.00" stroke="#000000"/>
    <line x1="50.78" y1="0.00" x2="56.78" y2="0.00" stroke="#000000"/>
    <line x1="56.78" y1="0.00" x2="62.78" y2="0.00" stroke="#000000"/>
    <line x1="62.78" y1="0.00" x2="68.78" y2="0.00" stroke="#000000"/>
    <line x1="68.78" y1="0.00" x2="74.78" y2="0.00" stroke="#000000"/>
    <line x1="74.78" y1="0.00" x2="80.78" y2="0.00" stroke="#000000"/>
    <line x1="80.78" y1="0.00" x2="86.78" y2="0.00" stroke="#000000"/>
    <line x1="86.78" y1="0.00" x2="92.78" y2="0.00" stroke="#000000"/>
    <line x1="20.78" y1="48.00" x2="26.78" y2="48.00" stroke="#000000"/>
    <line x1="26.78" y1="48.00" x2="32.78" y2="48.00" stroke="#000000"/>
    <line x1="32.78" y1="48.00" x2="38.78" y2="48.00" stroke="#000000"/>
    <line x1="38.78" y1="48.00" x2="44.78" y2="48.00" stroke="#000000"/>
    <line x1="44.78" y1="48.00" x2="50.78" y2="48.00" stroke="#000000"/>
    <line x1="50.78" y1="48.00" x2="56.78" y2="48.00" stroke="#000000"/>
    <line x1="56.78" y1="48.00" x2="62.78" y2="48.00" stroke="#000000"/>
    <line x1="62.78" y1="48.00" x2="68.78" y2="48.00" stroke="#000000"/>
    <line x1="68.78" y1="48.00" x2="74.78" y2="48.00" stroke="#000000"/>
    <line x1="74.78" y1="48.00" x2="80.78" y2="48.00" stroke="#000000"/>
    <line x1="80.78" y1="48.00" x2="86.78" y2="48.00" stroke="#000000"/>
    <line x1="86.78" y1="48.00" x2="92.78" y2="48.00" stroke="#000000"/>
    <line x1="20.78" y1="0.00" x2="12.78" y2="8.00" stroke="#000000"/>
    <line x1="92.78" y1="0.00" x2="108.78" y2="8.00" stroke="#000000"/>
    <line x1="12.78" y1="8.00" x2="0.00" y2="16.00" stroke="#000000"/>
    <line x1="108.78" y1="8.00" x2="113.57" y2="16.00" stroke="#000000"/>
    <line x1="0.00" y1="16.00" x2="1.78" y2="24.00" stroke="#000000"/>
    <line x1="113.57" y1="16.00" x2="121.78" y2="24.00" stroke="#000000"/>
    <line x1="1.78" y1="24.00" x2="0.00" y2="32.00" stroke="#000000"/>
    <line x1="121.78" y1="24.00" x2="113.57" y2="32.00" stroke="#000000"/>
    <line x1="0.00" y1="32.00" x2="12.78" y2="40.00" stroke="#000000"/>
    <line x1="113.57" y1="32.00" x2="108.78" y2="40.00" stroke="#000000"/>
    <line x1="12.78" y1="40.00" x2="20.78" y2="48.00" stroke="#000000"/>
    <line x1="108.78" y1="40.00" x2="92.78" y2="48.00" stroke="#000000"/>
  </g>
  <g id="score" data-laser="score">
    <line x1="12.78" y1="8.00" x2="20.78" y2="8.00" stroke="#ff0000" opacity="0.700"/>
    <line x1="20.78" y1="8.00" x2="28.78" y2="8.00" stroke="#ff0000" opacity="0.700"/>
    <line x1="28.78" y1="8.00" x2="36.78" y2="8.00" stroke="#ff0000" opacity="0.700"/>
    <line x1="36.78" y1="8.00" x2="44.78" y2="8.00" stroke="#ff0000" opacity="0.700"/>
    <line x1="44.78" y1="8.00" x2="52.78" y2="8.00" stroke="#ff0000" opacity="0.700"/>
    <line x1="52.78" y1="8.00" x2="60.78" y2="8.00" stroke="#ff0000" opacity="0.700"/>
    <line x1="60.78" y1="8.00" x2="68.78" y2="8.00" stroke="#ff0000" opacity="0.700"/>
    <line x1="68.78" y1="8.00" x2="76.78" y2="8.00" stroke="#ff0000" opacity="0.700"/>
    <line x1="76.78" y1="8.00" x2="84.78" y2="8.00" stroke="#ff0000" opacity="0.700"/>
    <line x1="84.78" y1="8.00" x2="92.78" y2="8.00" stroke="#ff0000" opacity="0.700"/>
    <line x1="92.78" y1="8.00" x2="100.78" y2="8.00" stroke="#ff0000" opacity="0.700"/>
    <line x1="100.78" y1="8.00" x2="108.78" y2="8.00" stroke="#ff0000" opacity="0.700"/>
    <line x1="0.00" y1="16.00" x2="9.46" y2="16.00" stroke="#ff0000" opacity="0.700"/>
    <line x1="9.46" y1="16.00" x2="18.93" y2="16.00" stroke="#ff0000" opacity="0.700"/>
    <line x1="18.93" y1="16.00" x2="28.39" y2="16.00" stroke="#ff0000" opacity="0.700"/>
    <line x1="28.39" y1="16.00" x2="37.86" y2="16.00" stroke="#ff0000" opacity="0.700"/>
    <line x1="37.86" y1="16.00" x2="47.32" y2="16.00" stroke="#ff0000" opacity="0.700"/>
    <line x1="47.32" y1="16.00" x2="56.78" y2="16.00" stroke="#ff0000" opacity="0.700"/>
    <line x1="56.78" y1="16.00" x2="66.25" y2="16.00" stroke="#ff0000" opacity="0.700"/>
    <line x1="66.25" y1="16.00" x2="75.71" y2="16.00" stroke="#ff0000" opacity="0.700"/>
    <line x1="75.71" y1="16.00" x2="85.18" y2="16.00" stroke="#ff0000" opacity="0.700"/>
    <line x1="85.18" y1="16.00" x2="94.64" y2="16.00" stroke="#ff0000" opacity="0.700"/>
    <line x1="94.64" y1="16.00" x2="104.11" y2="16.00" stroke="#ff0000" opacity="0.700"/>
    <line x1="104.11" y1="16.00" x2="113.57" y2="16.00" stroke="#ff0000" opacity="0.700"/>
    <line x1="1.78" y1="24.00" x2="11.78" y2="24.00" stroke="#ff0000" opacity="0.700"/>
    <line x1="11.78" y1="24.00" x2="21.78" y2="24.00" stroke="#ff0000" opacity="0.700"/>
    <line x1="21.78" y1="24.00" x2="31.78" y2="24.00" stroke="#ff0000" opacity="0.700"/>
    <line x1="31.78" y1="24.00" x2="41.78" y2="24.00" stroke="#ff0000" opacity="0.700"/>
    <line x1="41.78" y1="24.00" x2="51.78" y2="24.00" stroke="#ff0000" opacity="0.700"/>
    <line x1="51.78" y1="24.00" x2="61.78" y2="24.00" stroke="#ff0000" opacity="0.700"/>
    <line x1="61.78" y1="24.00" x2="71.78" y2="24.00" stroke="#ff0000" opacity="0.700"/>
    <line x1="71.78" y1="24.00" x2="81.78" y2="24.00" stroke="#ff0000" opacity="0.700"/>
    <line x1="81.78" y1="24.00" x2="91.78" y2="24.00" stroke="#ff0000" opacity="0.700"/>
    <line x1="91.78" y1="24.00" x2="101.78" y2="24.00" stroke="#ff0000" opacity="0.700"/>
    <line x1="101.78" y1="24.00" x2="111.78" y2="24.00" stroke="#ff0000" opacity="0.700"/>
    <line x1="111.78" y1="24.00" x2="121.78" y2="24.00" stroke="#ff0000" opacity="0.700"/>
    <line x1="0.00" y1="32.00" x2="9.46" y2="32.00" stroke="#ff0000" opacity="0.700"/>
    <line x1="9.46" y1="32.00" x2="18.93" y2="32.00" stroke="#ff0000" opacity="0.700"/>
    <line x1="18.93" y1="32.00" x2="28.39" y2="32.00" stroke="#ff0000" opacity="0.700"/>
    <line x1="28.39" y1="32.00" x2="37.86" y2="32.00" stroke="#ff0000" opacity="0.700"/>
    <line x1="37.86" y1="32.00" x2="47.32" y2="32.00" stroke="#ff0000" opacity="0.700"/>
    <line x1="47.32" y1="32.00" x2="56.78" y2="32.00" stroke="#ff0000" opacity="0.700"/>
    <line x1="56.78" y1="32.00" x2="66.25" y2="32.00" stroke="#ff0000" opacity="0.700"/>
    <line x1="66.25" y1="32.00" x2="75.71" y2="32.00" stroke="#ff0000" opacity="0.700"/>
    <line x1="75.71" y1="32.00" x2="85.18" y2="32.00" stroke="#ff0000" opacity="0.700"/>
    <line x1="85.18" y1="32.00" x2="94.64" y2="32.00" stroke="#ff0000" opacity="0.700"/>
    <line x1="94.64" y1="32.00" x2="104.11" y2="32.00" stroke="#ff0000" opacity="0.700"/>
    <line x1="104.11" y1="32.00" x2="113.57" y2="32.00" stroke="#ff0000" opacity="0.700"/>
    <line x1="12.78" y1="40.00" x2="20.78" y2="40.00" stroke="#ff0000" opacity="0.700"/>
    <line x1="20.78" y1="40.00" x2="28.78" y2="40.00" stroke="#ff0000" opacity="0.700"/>
    <line x1="28.78" y1="40.00" x2="36.78" y2="40.00" stroke="#ff0000" opacity="0.700"/>
    <line x1="36.78" y1="40.00" x2="44.78" y2="40.00" stroke="#ff0000" opacity="0.700"/>
    <line x1="44.78" y1="40.00" x2="52.78" y2="40.00" stroke="#ff0000" opacity="0.700"/>
    <line x1="52.78" y1="40.00" x2="60.78" y2="40.00" stroke="#ff0000" opacity="0.700"/>
    <line x1="60.78" y1="40.00" x2="68.78" y2="40.00" stroke="#ff0000" opacity="0.700"/>
    <line x1="68.78" y1="40.00" x2="76.78" y2="40.00" stroke="#ff0000" opacity="0.700"/>
    <line x1="76.78" y1="40.00" x2="84.78" y2="40.00" stroke="#ff0000" opacity="0.700"/>
    <line x1="84.78" y1="40.00" x2="92.78" y2="40.00" stroke="#ff0000" opacity="0.700"/>
    <line x1="92.78" y1="40.00" x2="100.78" y2="40.00" stroke="#ff0000" opacity="0.700"/>
    <line x1="100.78" y1="40.00" x2="108.78" y2="40.00" stroke="#ff0000" opacity="0.700"/>
    <line x1="26.78" y1="0.00" x2="12.78" y2="8.00" stroke="#0000ff" opacity="0.700"/>
    <line x1="26.78" y1="0.00" x2="20.78" y2="8.00" stroke="#0000ff" opacity="0.700"/>
    <line x1="32.78" y1="0.00" x2="20.78" y2="8.00" stroke="#0000ff" opacity="0.700"/>
    <line x1="32.78" y1="0.00" x2="28.78" y2="8.00" stroke="#0000ff" opacity="0.700"/>
    <line x1="38.78" y1="0.00" x2="28.78" y2="8.00" stroke="#0000ff" opacity="0.700"/>
    <line x1="38.78" y1="0.00" x2="36.78" y2="8.00" stroke="#0000ff" opacity="0.700"/>
    <line x1="44.78" y1="0.00" x2="36.78" y2="8.00" stroke="#0000ff" opacity="0.700"/>
    <line x1="44.78" y1="0.00" x2="44.78" y2="8.00" stroke="#0000ff" opacity="0.700"/>
    <line x1="50.78" y1="0.00" x2="44.78" y2="8.00" stroke="#0000ff" opacity="0.700"/>
    <line x1="50.78" y1="0.00" x2="52.78" y2="8.00" stroke="#0000ff" opacity="0.700"/>
    <line x1="56.78" y1="0.00" x2="52.78" y2="8.00" stroke="#0000ff" opacity="0.700"/>
    <line x1="56.78" y1="0.00" x2="60.78" y2="8.00" stroke="#0000ff" opacity="0.700"/>
    <line x1="62.78" y1="0.00" x2="60.78" y2="8.00" stroke="#0000ff" opacity="0.700"/>
    <line x1="62.78" y1="0.00" x2="68.78" y2="8.00" stroke="#0000ff" opacity="0.700"/>
    <line x1="68.78" y1="0.00" x2="68.78" y2="8.00" stroke="#0000ff" opacity="0.700"/>
    <line x1="68.78" y1="0.00" x2="76.78" y2="8.00" stroke="#0000ff" opacity="0.700"/>
    <line x1="74.78" y1="0.00" x2="76.78" y2="8.00" stroke="#0000ff" opacity="0.700"/>
    <line x1="74.78" y1="0.00" x2="84.78" y2="8.00" stroke="#0000ff" opacity="0.700"/>
    <line x1="80.78" y1="0.00" x2="84.78" y2="8.00" stroke="#0000ff" opacity="0.700"/>
    <line x1="80.78" y1="0.00" x2="92.78" y2="8.00" stroke="#0000ff" opacity="0.700"/>
    <line x1="86.78" y1="0.00" x2="92.78" y2="8.00" stroke="#0000ff" opacity="0.700"/>
    <line x1="86.78" y1="0.00" x2="100.78" y2="8.00" stroke="#0000ff" opacity="0.700"/>
    <line x1="92.78" y1="0.00" x2="100.78" y2="8.00" stroke="#0000ff" opacity="0.700"/>
    <line x1="12.78" y1="8.00" x2="9.46" y2="16.00" stroke="#0000ff" opacity="0.700"/>
    <line x1="20.78" y1="8.00" x2="9.46" y2="16.00" stroke="#0000ff" opacity="0.700"/>
    <line x1="20.78" y1="8.00" x2="18.93" y2="16.00" stroke="#0000ff" opacity="0.700"/>
    <line x1="28.78" y1="8.00" x2="18.93" y2="16.00" stroke="#0000ff" opacity="0.700"/>
    <line x1="28.78" y1="8.00" x2="28.39" y2="16.00" stroke="#0000ff" opacity="0.700"/>
    <line x1="36.78" y1="8.00" x2="28.39" y2="16.00" stroke="#0000ff" opacity="0.700"/>
    <line x1="36.78" y1="8.00" x2="37.86" y2="16.00" stroke="#0000ff" opacity="0.700"/>
    <line x1="44.78" y1="8.00" x2="37.86" y2="16.00" stroke="#0000ff" opacity="0.700"/>
    <line x1="44.78" y1="8.00" x2="47.32" y2="16.00" stroke="#0000ff" opacity="0.700"/>
    <line x1="52.78" y1="8.00" x2="47.32" y2="16.00" stroke="#0000ff" opacity="0.700"/>
    <line x1="52.78" y1="8.00" x2="56.78" y2="16.00" stroke="#0000ff" opacity="0.700"/>
    <line x1="60.78" y1="8.00" x2="56.78" y2="16.00" stroke="#0000ff" opacity="0.700"/>
    <line x1="60.78" y1="8.00" x2="66.25" y2="16.00" stroke="#0000ff" opacity="0.700"/>
    <line x1="68.78" y1="8.00" x2="66.25" y2="16.00" stroke="#0000ff" opacity="0.700"/>
    <line x1="68.78" y1="8.00" x2="75.71" y2="16.00" stroke="#0000ff" opacity="0.700"/>
    <line x1="76.78" y1="8.00" x2="75.71" y2="16.00" stroke="#0000ff" opacity="0.700"/>
    <line x1="76.78" y1="8.00" x2="85.18" y2="16.00" stroke="#0000ff" opacity="0.700"/>
    <line x1="84.78" y1="8.00" x2="85.18" y2="16.00" stroke="#0000ff" opacity="0.700"/>
    <line x1="84.78" y1="8.00" x2="94.64" y2="16.00" stroke="#0000ff" opacity="0.700"/>
    <line x1="92.78" y1="8.00" x2="94.64" y2="16.00" stroke="#0000ff" opacity="0.700"/>
    <line x1="92.78" y1="8.00" x2="104.11" y2="16.00" stroke="#0000ff" opacity="0.700"/>
    <line x1="100.78" y1="8.00" x2="104.11" y2="16.00" stroke="#0000ff" opacity="0.700"/>
    <line x1="100.78" y1="8.00" x2="113.57" y2="16.00" stroke="#0000ff" opacity="0.700"/>
    <line x1="9.46" y1="16.00" x2="1.78" y2="24.00" stroke="#0000ff" opacity="0.700"/>
    <line x1="9.46" y1="16.00" x2="11.78" y2="24.00" stroke="#0000ff" opacity="0.700"/>
    <line x1="18.93" y1="16.00" x2="11.78" y2="24.00" stroke="#0000ff" opacity="0.700"/>
    <line x1="18.93" y1="16.00" x2="21.78" y2="24.00" stroke="#0000ff" opacity="0.700"/>
    <line x1="28.39" y1="16.00" x2="21.78" y2="24.00" stroke="#0000ff" opacity="0.700"/>
    <line x1="28.39" y1="16.00" x2="31.78" y2="24.00" stroke="#0000ff" opacity="0.700"/>
    <line x1="37.86" y1="16.00" x2="31.78" y2="24.00" stroke="#0000ff" opacity="0.700"/>
    <line x1="37.86" y1="16.00" x2="41.78" y2="24.00" stroke="#0000ff" opacity="0.700"/>
    <line x1="47.32" y1="16.00" x2="41.78" y2="24.00" stroke="#0000ff" opacity="0.700"/>
    <line x1="47.32" y1="16.00" x2="51.78" y2="24.00" stroke="#0000ff" opacity="0.700"/>
    <line x1="56.78" y1="16.00" x2="51.78" y2="24.00" stroke="#0000ff" opacity="0.700"/>
    <line x1="56.78" y1="16.00" x2="61.78" y2="24.00" stroke="#0000ff" opacity="0.700"/>
    <line x1="66.25" y1="16.00" x2="61.78" y2="24.00" stroke="#0000ff" opacity="0.700"/>
    <line x1="66.25" y1="16.00" x2="71.78" y2="24.00" stroke="#0000ff" opacity="0.700"/>
    <line x1="75.71" y1="16.00" x2="71.78" y2="24.00" stroke="#0000ff" opacity="0.700"/>
    <line x1="75.71" y1="16.00" x2="81.78" y2="24.00" stroke="#0000ff" opacity="0.700"/>
    <line x1="85.18" y1="16.00" x2="81.78" y2="24.00" stroke="#0000ff" opacity="0.700"/>
    <line x1="85.18" y1="16.00" x2="91.78" y2="24.00" stroke="#0000ff" opacity="0.700"/>
    <line x1="94.64" y1="16.00" x2="91.78" y2="24.00" stroke="#0000ff" opacity="0.700"/>
    <line x1="94.64" y1="16.00" x2="101.78" y2="24.00" stroke="#0000ff" opacity="0.700"/>
    <line x1="104.11" y1="16.00" x2="101.78" y2="24.00" stroke="#0000ff" opacity="0.700"/>
    <line x1="104.11" y1="16.00" x2="111.78" y2="24.00" stroke="#0000ff" opacity="0.700"/>
    <line x1="113.57" y1="16.00" x2="111.78" y2="24.00" stroke="#0000ff" opacity="0.700"/>
    <line x1="1.78" y1="24.00" x2="9.46" y2="32.00" stroke="#0000ff" opacity="0.700"/>
    <line x1="11.78" y1="24.00" x2="9.46" y2="32.00" stroke="#0000ff" opacity="0.700"/>
    <line x1="11.78" y1="24.00" x2="18.93" y2="32.00" stroke="#0000ff" opacity="0.700"/>
    <line x1="21.78" y1="24.00" x2="18.93" y2="32.00" stroke="#0000ff" opacity="0.700"/>
    <line x1="21.78" y1="24.00" x2="28.39" y2="32.00" stroke="#0000ff" opacity="0.700"/>
    <line x1="31.78" y1="24.00" x2="28.39" y2="32.00" stroke="#0000ff" opacity="0.700"/>
    <line x1="31.78" y1="24.00" x2="37.86" y2="32.00" stroke="#0000ff" opacity="0.700"/>
    <line x1="41.78" y1="24.00" x2="37.86" y2="32.00" stroke="#0000ff" opacity="0.700"/>
    <line x1="41.78" y1="24.00" x2="47.32" y2="32.00" stroke="#0000ff" opacity="0.700"/>
    <line x1="51.78" y1="24.00" x2="47.32" y2="32.00" stroke="#0000ff" opacity="0.700"/>
    <line x1="51.78" y1="24.00" x2="56.78" y2="32.00" stroke="#0000ff" opacity="0.700"/>
    <line x1="61.78" y1="24.00" x2="56.78" y2="32.00" stroke="#0000ff" opacity="0.700"/>
    <line x1="61.78" y1="24.00" x2="66.25" y2="32.00" stroke="#0000ff" opacity="0.700"/>
    <line x1="71.78" y1="24.00" x2="66.25" y2="32.00" stroke="#0000ff" opacity="0.700"/>
    <line x1="71.78" y1="24.00" x2="75.71" y2="32.00" stroke="#0000ff" opacity="0.700"/>
    <line x1="81.78" y1="24.00" x2="75.71" y2="32.00" stroke="#0000ff" opacity="0.700"/>
    <line x1="81.78" y1="24.00" x2="85.18" y2="32.00" stroke="#0000ff" opacity="0.700"/>
    <line x1="91.78" y1="24.00" x2="85.18" y2="32.00" stroke="#0000ff" opacity="0.700"/>
    <line x1="91.78" y1="24.00" x2="94.64" y2="32.00" stroke="#0000ff" opacity="0.700"/>
    <line x1="101.78" y1="24.00" x2="94.64" y2="32.00" stroke="#0000ff" opacity="0.700"/>
    <line x1="101.78" y1="24.00" x2="104.11" y2="32.00" stroke="#0000ff" opacity="0.700"/>
    <line x1="111.78" y1="24.00" x2="104.11" y2="32.00" stroke="#0000ff" opacity="0.700"/>
    <line x1="111.78" y1="24.00" x2="113.57" y2="32.00" stroke="#0000ff" opacity="0.700"/>
    <line x1="9.46" y1="32.00" x2="12.78" y2="40.00" stroke="#0000ff" opacity="0.700"/>
    <line x1="9.46" y1="32.00" x2="20.78" y2="40.00" stroke="#0000ff" opacity="0.700"/>
    <line x1="18.93" y1="32.00" x2="20.78" y2="40.00" stroke="#0000ff" opacity="0.700"/>
    <line x1="18.93" y1="32.00" x2="28.78" y2="40.00" stroke="#0000ff" opacity="0.700"/>
    <line x1="28.39" y1="32.00" x2="28.78" y2="40.00" stroke="#0000ff" opacity="0.700"/>
    <line x1="28.39" y1="32.00" x2="36.78" y2="40.00" stroke="#0000ff" opacity="0.700"/>
    <line x1="37.86" y1="32.00" x2="36.78" y2="40.00" stroke="#0000ff" opacity="0.700"/>
    <line x1="37.86" y1="32.00" x2="44.78" y2="40.00" stroke="#0000ff" opacity="0.700"/>
    <line x1="47.32" y1="32.00" x2="44.78" y2="40.00" stroke="#0000ff" opacity="0.700"/>
    <line x1="47.32" y1="32.00" x2="52.78" y2="40.00" stroke="#0000ff" opacity="0.700"/>
    <line x1="56.78" y1="32.00" x2="52.78" y2="40.00" stroke="#0000ff" opacity="0.700"/>
    <line x1="56.78" y1="32.00" x2="60.78" y2="40.00" stroke="#0000ff" opacity="0.700"/>
    <line x1="66.25" y1="32.00" x2="60.78" y2="40.00" stroke="#0000ff" opacity="0.700"/>
    <line x1="66.25" y1="32.00" x2="68.78" y2="40.00" stroke="#0000ff" opacity="0.700"/>
    <line x1="75.71" y1="32.00" x2="68.78" y2="40.00" stroke="#0000ff" opacity="0.700"/>
    <line x1="75.71" y1="32.00" x2="76.78" y2="40.00" stroke="#0000ff" opacity="0.700"/>
    <line x1="85.18" y1="32.00" x2="76.78" y2="40.00" stroke="#0000ff" opacity="0.700"/>
    <line x1="85.18" y1="32.00" x2="84.78" y2="40.00" stroke="#0000ff" opacity="0.700"/>
    <line x1="94.64" y1="32.00" x2="84.78" y2="40.00" stroke="#0000ff" opacity="0.700"/>
    <line x1="94.64" y1="32.00" x2="92.78" y2="40.00" stroke="#0000ff" opacity="0.700"/>
    <line x1="104.11" y1="32.00" x2="92.78" y2="40.00" stroke="#0000ff" opacity="0.700"/>
    <line x1="104.11" y1="32.00" x2="100.78" y2="40.00" stroke="#0000ff" opacity="0.700"/>
    <line x1="113.57" y1="32.00" x2="100.78" y2="40.00" stroke="#0000ff" opacity="0.700"/>
    <line x1="12.78" y1="40.00" x2="26.78" y2="48.00" stroke="#0000ff" opacity="0.700"/>
    <line x1="20.78" y1="40.00" x2="26.78" y2="48.00" stroke="#0000ff" opacity="0.700"/>
    <line x1="20.78" y1="40.00" x2="32.78" y2="48.00" stroke="#0000ff" opacity="0.700"/>
    <line x1="28.78" y1="40.00" x2="32.78" y2="48.00" stroke="#0000ff" opacity="0.700"/>
    <line x1="28.78" y1="40.00" x2="38.78" y2="48.00" stroke="#0000ff" opacity="0.700"/>
    <line x1="36.78" y1="40.00" x2="38.78" y2="48.00" stroke="#0000ff" opacity="0.700"/>
    <line x1="36.78" y1="40.00" x2="44.78" y2="48.00" stroke="#0000ff" opacity="0.700"/>
    <line x1="44.78" y1="40.00" x2="44.78" y2="48.00" stroke="#0000ff" opacity="0.700"/>
    <line x1="44.78" y1="40.00" x2="50.78" y2="48.00" stroke="#0000ff" opacity="0.700"/>
    <line x1="52.78" y1="40.00" x2="50.78" y2="48.00" stroke="#0000ff" opacity="0.700"/>
    <line x1="52.78" y1="40.00" x2="56.78" y2="48.00" stroke="#0000ff" opacity="0.700"/>
    <line x1="60.78" y1="40.00" x2="56.78" y2="48.00" stroke="#0000ff" opacity="0.700"/>
    <line x1="60.78" y1="40.00" x2="62.78" y2="48.00" stroke="#0000ff" opacity="0.700"/>
    <line x1="68.78" y1="40.00" x2="62.78" y2="48.00" stroke="#0000ff" opacity="0.700"/>
    <line x1="68.78" y1="40.00" x2="68.78" y2="48.00" stroke="#0000ff" opacity="0.700"/>
    <line x1="76.78" y1="40.00" x2="68.78" y2="48.00" stroke="#0000ff" opacity="0.700"/>
    <line x1="76.78" y1="40.00" x2="74.78" y2="48.00" stroke="#0000ff" opacity="0.700"/>
    <line x1="84.78" y1="40.00" x2="74.78" y2="48.00" stroke="#0000ff" opacity="0.700"/>
    <line x1="84.78" y1="40.00" x2="80.78" y2="48.00" stroke="#0000ff" opacity="0.700"/>
    <line x1="92.78" y1="40.00" x2="80.78" y2="48.00" stroke="#0000ff" opacity="0.700"/>
    <line x1="92.78" y1="40.00" x2="86.78" y2="48.00" stroke="#0000ff" opacity="0.700"/>
    <line x1="100.78" y1="40.00" x2="86.78" y2="48.00" stroke="#0000ff" opacity="0.700"/>
    <line x1="100.78" y1="40.00" x2="92.78" y2="48.00" stroke="#0000ff" opacity="0.700"/>
  </g>
</svg>
